<svg width="1920" height="1281" viewBox="0 0 1920 1281" fill="none" xmlns="http://www.w3.org/2000/svg">
<g style="mix-blend-mode:color-dodge">
<path d="M1 1280.4C640.344 1277.69 1279.84 1276.49 1919.18 1280.4" stroke="#666666" stroke-miterlimit="10"/>
<path d="M1 1254.91C186.092 1242.54 374.023 1238.32 559.371 1248.09C635.075 1252.07 710.984 1254.04 786.714 1249.85C869.298 1245.27 947.918 1227.02 1029.4 1215.87C1174.31 1196.03 1321.25 1242.64 1465.55 1250.41C1617.54 1258.62 1766.8 1237.3 1919.18 1256.73" stroke="#666666" stroke-miterlimit="10"/>
<path d="M1 1226.43C193.253 1205.18 392.514 1201.29 585.228 1220.37C662.492 1228.01 740.396 1232.05 817.788 1223.95C909.12 1214.41 988.379 1179.28 1076.26 1157.83C1223.04 1122.01 1367.95 1208.99 1512.04 1223.13C1575.29 1229.34 1637.9 1215.77 1701 1211.7C1775.6 1206.87 1846.78 1214.56 1919.18 1233.05" stroke="#666666" stroke-miterlimit="10"/>
<path d="M1 1195.54C199.161 1166.83 402.898 1170.36 601.213 1196.97C679.244 1207.43 757.327 1213.18 835.538 1201.06C876.229 1194.75 915.923 1184.14 954.747 1170.46C1007.54 1151.87 1056.21 1117.71 1108.56 1100.63C1255.49 1052.69 1394.93 1175.01 1534.27 1196.87C1598.21 1206.89 1656.55 1186.11 1719.54 1178.92C1789.69 1170.92 1853.58 1184.62 1919.21 1209.4" stroke="#666666" stroke-miterlimit="10"/>
<path d="M1 1162.71C194.992 1128.73 393.179 1139.37 586.481 1173.76C670.37 1188.69 754.386 1198.53 838.786 1181.4C945.949 1159.64 1024.98 1095.23 1123.09 1054.07C1282.19 987.308 1408.9 1149.26 1557.31 1173.88C1615.91 1183.6 1664.22 1158.8 1720.31 1147.98C1792.3 1134.1 1854.5 1154.53 1919.18 1185.75" stroke="#666666" stroke-miterlimit="10"/>
<path d="M1 1128.47C195.146 1088.64 385.583 1112.21 576.864 1155.35C661.009 1174.32 745.383 1184.7 830.269 1163.71C874.336 1152.82 915.974 1135.05 956.179 1114.18C1016.36 1082.96 1069.61 1030.8 1129.99 1002.91C1292.3 927.912 1408.1 1117.02 1552.48 1148.42C1618.18 1162.71 1661.89 1131.31 1722.48 1115.89C1794.5 1097.59 1857.29 1127.12 1919.18 1162.07" stroke="#666666" stroke-miterlimit="10"/>
<path d="M1 1093.37C191.309 1048.19 365.864 1085.9 550.266 1136.09C635.893 1159.39 721.47 1173.48 808.658 1149.31C854.797 1136.53 897.738 1115.46 938.967 1091.45C1003.57 1053.84 1059.3 993.88 1124.34 959.771C1295.16 870.203 1396.47 1089.81 1544.09 1124.79C1613.48 1141.23 1654.12 1103.54 1715.91 1084.09C1790.69 1060.54 1857.16 1099.66 1919.16 1138.4" stroke="#666666" stroke-miterlimit="10"/>
<path d="M1 1057.88C182.742 1007.81 337.091 1057.26 509.319 1113.87C594.742 1141.95 679.935 1162.97 768.964 1139.95C904.414 1104.95 992.701 998.431 1106.54 926.659C1291.4 810.141 1373.78 1069.61 1535.06 1102.65C1604.88 1116.97 1644.37 1072.45 1706.09 1050.95C1784.25 1023.72 1856.4 1072.76 1919.18 1114.67" stroke="#666666" stroke-miterlimit="10"/>
<path d="M1 1022.57C177.345 965.626 312.743 1029.62 474.689 1093.06C562.133 1127.3 650.574 1155.07 743.746 1126.76C881.881 1084.8 971.908 970.51 1086.1 891.016C1280.25 755.884 1343.98 1044.63 1510.74 1078.59C1581.71 1093.04 1625.52 1043.64 1686.29 1019.53C1772.12 985.467 1850.92 1043.43 1919.18 1091.07" stroke="#666666" stroke-miterlimit="10"/>
<path d="M1 987.896C80.0036 957.802 157.115 950.873 238.829 975.163C314.278 997.587 379.061 1042.87 450.264 1074.91C534.357 1112.75 620.753 1145.94 712.774 1115.79C858.94 1067.9 946.921 937.858 1066.21 851.589C1259.35 711.88 1315.54 1009.68 1474.11 1049.85C1554.4 1070.18 1600.92 1011.24 1669.18 984.291C1761.43 947.856 1847.62 1015.87 1919.18 1067.39" stroke="#666666" stroke-miterlimit="10"/>
<path d="M1 954.427C72.1007 922.236 142.946 912.212 218.036 937.372C292.001 962.149 352.079 1014.31 420.213 1050.41C499.472 1092.42 581.033 1134.59 672.237 1107.69C825.154 1062.63 921.14 916.585 1039.81 822.082C1242.17 660.921 1275.75 985.007 1441.53 1022.31C1526.6 1041.46 1579.56 973.118 1652.61 946.475C1750.87 910.653 1845.12 988.919 1919.16 1043.69" stroke="#666666" stroke-miterlimit="10"/>
<path d="M1 922.645C165.324 834.432 264.021 938.779 397.859 1023.1C473.871 1071 555.713 1126.4 648.86 1095.57C799.706 1045.63 898.94 895.49 1013.29 795.644C1087.1 731.21 1157.77 716.252 1220.99 797.766C1275.83 868.439 1311.04 970.228 1408.61 990.709C1493.58 1008.53 1553.58 938.574 1626.47 910.065C1733.73 868.081 1839.92 959.873 1919.18 1020.04" stroke="#666666" stroke-miterlimit="10"/>
<path d="M1 893.087C160.158 793.087 259.341 896.922 384.867 991.169C451.824 1041.44 527.631 1111.06 618.093 1087.46C673.157 1073.09 721.982 1032.26 764.028 996.206C844.848 926.94 911.933 845.222 988.66 772.044C1062.22 701.883 1134.72 674.268 1197.79 766.828C1244.8 835.813 1280.86 942.384 1375.37 957.444C1465.21 971.763 1530.97 894.698 1609.77 868.055C1723.43 829.599 1838.01 932.949 1919.18 996.309" stroke="#666666" stroke-miterlimit="10"/>
<path d="M1 866.291C63.0469 821.673 131.513 793.675 207.115 820.855C274.431 845.068 326.759 901.32 378.499 948.188C436.811 1001.01 510.47 1094.8 599.985 1076.36C650.369 1065.98 694.692 1027.43 732.34 994.596C815.435 922.108 888.275 838.139 962.982 757.367C1032.91 681.734 1110.4 627.324 1175.62 732.591C1219.53 803.442 1253.63 915.511 1353.22 919.448C1441.61 922.951 1508.03 852.381 1587.7 826.352C1709.9 786.439 1833.86 903.749 1919.21 972.657" stroke="#666666" stroke-miterlimit="10"/>
<path d="M1 841.693C64.6837 792.09 135.631 759.157 216.067 787.743C283.945 811.855 340.161 866.828 390.34 916.252C442.515 967.671 512.541 1068.67 597.964 1051.44C645.766 1041.8 687.812 1003.16 723.056 971.814C803.645 900.093 875.615 818.323 948.429 738.983C1015.11 666.342 1093.42 600.118 1159.56 704.9C1202.83 773.45 1235.7 882.859 1333.42 884.215C1421.04 885.416 1494.11 821.826 1575.93 800.042C1703.27 766.112 1827.73 877.336 1919.18 948.393" stroke="#666666" stroke-miterlimit="10"/>
<path d="M1 814.283C71.2567 759.029 146.219 729.318 232.103 767.671C303.127 799.402 365.327 859.438 420.289 912.596C469.6 960.308 530.7 1040.82 608.451 1015.74C655.894 1000.43 697.147 959.515 732.544 926.633C803.491 860.742 869.426 789.379 936.358 719.474C1000.14 652.816 1077.54 587.973 1146.1 680.916C1194.88 747.037 1225.93 852.79 1323.29 857.623C1410.02 861.918 1493.88 804.721 1577.49 789.379C1703.94 766.163 1821.54 853.302 1919.21 920.446" stroke="#666666" stroke-miterlimit="10"/>
<path d="M1 783.831C76.5509 726.199 153.534 700.86 241.796 746.373C309.418 781.223 371.823 837.347 427.451 888.561C479.293 936.299 542.951 1018.55 621.29 982.144C662.185 963.146 695.843 926.966 727.966 896.36C795.537 831.926 859.451 763.606 925.437 697.587C993.699 629.293 1071.04 576.339 1141.86 667.134C1190.61 729.651 1225.72 828.065 1318.15 832.156C1403.19 835.941 1487.67 795.209 1570.66 781.658C1698.77 760.742 1812.51 826.045 1919.21 888.97" stroke="#666666" stroke-miterlimit="10"/>
<path d="M1 750.898C88.1367 688.05 171.258 673.833 264.047 732.31C330.723 774.319 392.361 831.236 452.029 882.552C501.851 925.406 557.887 992.678 627.607 953.711C664.947 932.847 696.022 895.644 725.767 865.549C789.092 801.448 850.756 735.787 915.923 673.527C983.443 609.016 1060.73 562.455 1132.6 643.969C1186.26 704.823 1223.42 801.883 1315.62 810.678C1396.88 818.426 1485.42 786.669 1565.34 774.294C1693.07 754.529 1805.45 799.658 1919.16 854.759" stroke="#666666" stroke-miterlimit="10"/>
<path d="M1 716.099C95.4002 652.611 182.204 645.81 276.809 712.238C348.191 762.353 412.335 825.687 480.214 880.609C526.889 918.349 578.527 970.1 636.865 926.736C675.434 898.073 706.917 854.887 738.938 819.704C793.082 760.256 848.582 701.601 908.148 647.549C981.141 581.299 1060.3 550.003 1133.8 629.855C1187.61 688.305 1228.84 779.535 1317.26 789.43C1400.94 798.789 1491.43 776.825 1574.32 765.447C1696.21 748.725 1804.71 775.956 1919.18 818.323" stroke="#666666" stroke-miterlimit="10"/>
<path d="M1 679.97C108.623 612.698 200.107 619.858 298.907 698.712C373.869 758.543 437.758 828.167 515.892 884.624C569.499 923.335 608.144 945.196 657.07 891.246C740.217 799.556 807.558 695.056 904.976 615.997C976.486 557.981 1055.16 536.349 1126.41 603.877C1186.62 660.921 1227.13 748.495 1314.04 769.052C1394.27 787.999 1494.96 769.308 1575.62 758.313C1694.68 742.077 1802.12 751.614 1919.21 780.456" stroke="#666666" stroke-miterlimit="10"/>
<path d="M1 643.125C121.513 572.836 219.647 595.669 321.26 685.646C394.049 750.105 454.587 824.741 537.196 877.694C597.837 916.585 629.755 923.463 671.239 861.535C736.969 763.427 803.133 663.146 898.889 590.786C976.307 532.258 1054.75 519.116 1130.4 586.592C1193.39 642.793 1238.23 733.204 1327.31 753.097C1406.31 770.74 1498.51 762.353 1578.16 751.512C1693.78 735.761 1802.41 728.653 1919.21 741.668" stroke="#666666" stroke-miterlimit="10"/>
<path d="M1 606.153C132.357 533.665 235.121 569.384 339.24 668.566C412.924 738.753 473.666 824.486 564.383 874.243C631.725 911.19 655.357 891.988 687.48 828.653C738.58 727.937 803.21 626.147 897.866 560.538C977.995 504.976 1059.04 503.263 1134.31 567.109C1199.97 622.823 1247.79 710.883 1335.75 735.582C1524.4 788.561 1729.69 709.374 1919.21 702.803" stroke="#666666" stroke-miterlimit="10"/>
<path d="M1 569.615C66.3461 534.815 127.779 514.156 200.9 539.494C261.387 560.461 310.927 604.465 355.301 649.287C428.499 723.284 491.083 822.849 588.604 866.828C661.75 899.812 679.065 855.373 703.746 793.368C743.977 692.218 804.719 588.587 899.631 529.369C1106.49 400.272 1181.14 661.484 1345.72 718.119C1537.93 784.266 1731.25 700.809 1919.21 664.424" stroke="#666666" stroke-miterlimit="10"/>
<path d="M1 534.099C69.1595 498.047 131.974 477.95 206.425 505.334C268.881 528.295 319.367 575.214 364.611 622.747C435.763 697.485 509.344 826.864 615.484 856.626C689.782 877.464 701.495 807.968 720.319 752.023C753.261 654.094 810.039 546.117 905.027 494.314C1102.22 386.771 1201.53 628.577 1350.4 696.922C1545.73 786.592 1734.86 694.647 1919.18 627.196" stroke="#666666" stroke-miterlimit="10"/>
<path d="M1 500.22C69.8244 462.788 131.82 442.46 207.576 468.975C270.39 490.965 321.72 540.031 366.376 587.845C438.832 665.447 516.506 812.852 629.167 834.841C705.741 849.799 716.483 773.322 733.209 715.894C761.931 617.377 813.645 508.326 912.905 462.506C1110.38 371.353 1216.87 603.493 1362.53 678.564C1438.36 717.633 1536.54 737.653 1621.02 724.051C1728.11 706.817 1826.04 643.381 1919.21 591.911" stroke="#666666" stroke-miterlimit="10"/>
<path d="M1 468.515C74.3002 426.147 145.145 401.729 226.297 438.344C287.193 465.83 335.506 516.355 379.164 565.396C444.586 638.881 527.043 793.701 637.095 805.309C719.935 814.053 730.396 723.616 748.146 662.558C775.588 568.183 825.001 467.007 924.465 430.596C1120.45 358.824 1233.78 574.038 1375.19 658.134C1446.65 700.63 1540.05 729.727 1623.63 719.321C1735.6 705.36 1832.51 624.358 1919.16 559.029" stroke="#666666" stroke-miterlimit="10"/>
<path d="M1 439.597C70.2081 395.516 138.342 364.833 220.108 397.843C285.633 424.306 337.808 480.481 382.821 532.974C447.17 608.019 528.091 762.097 642.415 764.808C723.925 766.725 739.015 674.984 758.248 613.721C787.993 519.065 835.026 427.247 939.35 400.476C1139.12 349.185 1250.04 545.963 1392.99 640.364C1462.96 686.592 1556.29 724.716 1641.53 712.417C1753.02 696.309 1842.58 603.672 1919.18 529.369" stroke="#666666" stroke-miterlimit="10"/>
<path d="M1 414.053C64.5303 368.004 130.516 329.42 211.31 356.472C274.277 377.541 323.869 429.139 366.248 478.078C435.661 558.211 505.482 700.757 624.973 709.86C715.818 716.764 739.424 628.5 765.563 558.671C801.215 463.401 850.909 382.731 960.092 367.978C1153.65 341.821 1265.19 508.198 1399.66 612.928C1467.08 665.421 1558.36 715.69 1646.57 707.099C1763.58 695.695 1849.69 586.925 1919.18 503.544" stroke="#666666" stroke-miterlimit="10"/>
<path d="M1 393.905C64.2233 349.799 129.416 313.491 208.599 339.264C270.262 359.336 319.342 408.658 361.209 456.114C428.653 532.514 500.035 679.177 616.098 683.192C705.843 686.286 736.56 606.817 768.734 536.963C809.988 447.446 865.82 365.498 971.703 351.205C1158.48 325.994 1275.16 481.427 1407.72 580.839C1472.76 629.599 1564.5 679.203 1648.03 677.567C1764.81 675.265 1851.31 564.22 1919.18 483.166" stroke="#666666" stroke-miterlimit="10"/>
<path d="M1 380.123C63.2259 337.551 127.472 302.24 205.095 325.713C265.07 343.841 313.434 390.019 354.636 435.224C421.006 508.07 492.081 653.199 604.384 653.89C692.441 654.427 729.936 584.368 768.376 516.124C815.333 432.77 876.971 352.79 979.095 338.778C1159.12 314.104 1280.74 453.506 1413.37 546.296C1477.77 591.348 1568.51 641.617 1648.21 648.725C1764.4 659.08 1852.3 546.935 1919.16 468.796" stroke="#666666" stroke-miterlimit="10"/>
<path d="M1 371.583C60.6939 330.801 124.505 295.541 199.059 314.462C262.615 330.571 313.101 378.615 356.376 425.125C422.156 495.823 488.116 627.145 598.016 622.261C681.162 618.579 723.542 555.475 766.969 493.368C820.295 417.07 884.669 345.529 982.317 331.67C1159.63 306.485 1283.86 426.991 1421.81 512.954C1485.55 552.688 1566.42 599.811 1639.85 618.809C1758.87 649.594 1849.52 538.088 1919.18 459.336" stroke="#666666" stroke-miterlimit="10"/>
<path d="M1 367.185C59.057 327.017 121.513 290.99 194.839 305.897C255.888 318.323 305.505 361.074 348.038 404.005C414.74 471.302 476.838 592.166 583.31 587.436C664.078 583.856 712.646 530.724 762.059 473.475C821.267 404.9 889.605 339.75 983.494 326.096C1153.32 301.397 1283.45 397.74 1423.01 474.396C1492.27 512.442 1565.11 558.952 1637.82 589.737C1754.89 639.315 1846.91 532.028 1919.16 453.762" stroke="#666666" stroke-miterlimit="10"/>
<path d="M1 365.83C123.15 279.254 228.804 279.689 339.726 382.348C407.834 445.375 465.712 553.557 568.45 549.875C646.584 547.063 700.907 504.005 755.972 453.455C820.857 393.905 892.342 336.298 982.496 322.9C1144.31 298.84 1281.32 368.515 1422.14 434.611C1499.66 470.995 1562.38 516.636 1634.58 560.896C1748.59 630.775 1841.66 531.005 1919.21 451.103" stroke="#666666" stroke-miterlimit="10"/>
<path d="M1 366.418C114.684 283.166 219.315 267.006 331.9 359.668C401.798 417.198 455.635 511.445 554.204 509.502C718.324 506.28 819.4 345.58 979.811 321.34C1133.47 298.124 1277.82 339.29 1419.15 393.828C1505.55 427.17 1559.95 474.396 1630.02 532.003C1739.95 622.363 1833.38 533.971 1919.18 450.182" stroke="#666666" stroke-miterlimit="10"/>
<path d="M1 367.85C104.966 288.638 208.778 255.091 322.334 333.562C392.54 382.067 444.024 463.12 534.741 466.239C697.863 471.89 819.246 344.148 975.796 319.729C1118.64 297.459 1271.3 309.809 1409.1 351.128C1507.21 380.558 1557.31 434.074 1626.47 505.513C1652.3 532.207 1681.35 560.001 1720.15 564.194C1797.34 572.504 1869.54 496.027 1919.18 450.105" stroke="#666666" stroke-miterlimit="10"/>
<path d="M1 369.026C97.7276 292.371 201.054 243.662 317.142 307.84C388.959 347.548 438.909 414.948 524.562 419.934C683.925 429.216 818.172 343.841 971.473 320.036C1108.99 298.686 1264.83 280.89 1402.17 310.346C1507.82 333 1555.34 396.181 1619.38 476.927C1643.91 507.866 1671.69 543.457 1712.22 553.174C1790.54 571.941 1867.8 494.8 1919.16 449.824" stroke="#666666" stroke-miterlimit="10"/>
<path d="M1 368.822C95.4002 291.092 200.312 230.929 321.848 282.782C388.115 311.062 437.425 362.89 511.16 370.1C669.628 385.621 813.722 343.509 968.455 320.803C1049.99 308.837 1130.32 296.973 1211.17 280.686C1274.01 268.029 1335.08 261.458 1398.97 270.612C1509.36 286.413 1555.98 365.268 1613.22 451.179C1636.14 485.57 1663.68 528.27 1705.32 541.949C1785.12 568.183 1864.71 493.521 1919.18 448.188" stroke="#666666" stroke-miterlimit="10"/>
<path d="M1 366.163C91.9219 288.893 196.885 217.3 321.158 250.412C387.041 267.978 440.213 308.837 508.679 317.479C664.871 337.167 809.579 341.642 965.642 319.908C1048.28 308.402 1125.75 291.45 1204.57 264.143C1265.26 243.125 1323.5 225.892 1388.56 230.494C1504.42 238.676 1551.48 331.824 1603.78 422.286C1626.06 460.819 1652.97 510.397 1696.14 529.139C1777.47 564.45 1861.28 490.249 1919.24 444.301" stroke="#666666" stroke-miterlimit="10"/>
<path d="M1 359.949C90.6431 281.964 195.197 202.317 320.953 214.386C388.473 220.855 450.264 252.765 517.298 262.634C670.523 285.212 805.307 336.733 962.701 317.531C1045.98 307.354 1120.81 285.621 1195.85 248.443C1252.37 220.445 1306.23 192.115 1370.99 191.297C1496.88 189.763 1544.42 299.684 1595.11 396.641C1617.01 438.523 1643.32 493.01 1687.93 515.46C1770.69 557.137 1857.96 483.729 1919.18 437.014" stroke="#666666" stroke-miterlimit="10"/>
<path d="M1 349.083C92.4846 268.566 197.32 183.728 324.304 175.342C392.77 170.816 464.843 191.169 531.467 204.976C681.316 236.017 806.075 330.443 965.207 313.261C1047.02 304.439 1119.28 277.822 1187.87 232.923C1243.22 196.692 1293.93 157.853 1362.65 153.838C1491.28 146.347 1538.39 274.012 1585.32 370.893C1607.62 416.891 1633.22 472.529 1679.21 499.76C1761.79 548.648 1857.01 471.404 1919.18 425.38" stroke="#666666" stroke-miterlimit="10"/>
<path d="M1 332.412C157.549 194.953 322.539 88.97 535.662 140.466C687.377 177.132 804.233 319.729 968.839 306.28C1052.24 299.453 1122.5 265.984 1185.95 212.979C1235.65 171.481 1279.92 125.968 1347.72 118.63C1477.03 104.644 1524.42 235.403 1568.74 332.156C1592.94 384.956 1619.13 451 1671.64 482.45C1756.29 533.153 1854.61 455.245 1919.16 408.3" stroke="#666666" stroke-miterlimit="10"/>
<path d="M1 309.758C151.641 181.095 345.429 38.7782 556.174 97.7913C704.104 139.213 815.87 296.948 978.456 288.612C1059.76 284.444 1128.84 245.503 1186.23 190.325C1231.76 146.577 1272.45 97.2288 1339.41 89.8138C1463.45 76.0321 1513.94 205.104 1557.64 296.871C1583.81 351.767 1611.23 418.962 1665.04 452.739C1751.2 506.817 1850.72 432.974 1919.16 385.314" stroke="#666666" stroke-miterlimit="10"/>
<path d="M1 286.081C152.178 162.89 350.647 26.8631 558.066 77.9498C710.524 115.485 831.292 272.018 996.359 261.304C1071.17 256.446 1133.85 220.113 1186.39 168.873C1228.31 127.988 1265.06 81.4016 1326.26 71.4042C1448.33 51.4604 1508.64 183.78 1556.01 271.532C1583.22 321.903 1612.73 380.277 1662.12 412.775C1748.49 469.614 1845.68 406.689 1919.18 359.387" stroke="#666666" stroke-miterlimit="10"/>
<path d="M1 262.404C155.043 143.56 363.179 12.1355 569.064 64.5006C718.759 102.573 846.894 245.452 1008.43 236.682C1077.31 232.949 1137.61 196.257 1185.77 149.568C1224.37 112.161 1258.71 67.5945 1314.16 55.8583C1434.32 30.4428 1503.42 163.785 1555.75 247.037C1587.21 297.076 1620.1 352.151 1674.12 380.456C1759.59 425.227 1844.61 375.802 1919.18 331.542" stroke="#666666" stroke-miterlimit="10"/>
<path d="M1 238.727C159.979 123.59 373.179 2.67489 578.859 53.6082C727.122 90.3251 860.705 222.619 1019.76 211.752C1083.83 207.38 1138.59 175.188 1184.37 132.156C1222.86 95.9759 1257.44 51.8695 1312.42 41.7186C1426.67 20.5987 1501.1 145.81 1556.85 223.386C1588.85 267.901 1622.76 313.312 1671.53 340.287C1756.39 387.18 1841.92 344.25 1919.18 302.112" stroke="#666666" stroke-miterlimit="10"/>
<path d="M1 215.05C161.079 107.277 367.629 3.23741 568.348 41.0538C723.695 70.3302 864.081 200.118 1027.23 188.689C1089.1 184.342 1141.78 152.79 1186.85 112.238C1223.7 79.0492 1257.18 40.7981 1308.26 31.1587C1413.99 11.1893 1492.71 119.039 1550.82 189.507C1588.85 235.659 1630.41 286.311 1687.31 309.911C1767.78 343.278 1846.98 307.635 1919.21 271.481" stroke="#666666" stroke-miterlimit="10"/>
<path d="M1 191.373C165.069 89.9672 375.89 -3.07812 574.742 34.9429C726.329 63.938 873.62 179.1 1032.16 167.415C1147.31 158.927 1197.56 46.0909 1301.35 23.2323C1405.7 0.27141 1490.66 101.882 1554.81 167.646C1593.37 207.201 1633.63 248.75 1685.7 270.228C1766.32 303.468 1844.55 273.987 1919.16 239.98" stroke="#666666" stroke-miterlimit="10"/>
<path d="M1 167.697C169.391 73.5776 376.222 -2.82237 573.207 28.8575C726.022 53.4293 876.024 157.827 1034.26 145.989C1142.96 137.858 1201.07 36.4771 1301.4 16.8146C1399.23 -2.33655 1483.4 78.3334 1550.59 137.27C1592.07 173.68 1634.76 211.88 1687.01 232.105C1767.03 263.094 1843.58 239.315 1919.21 208.045" stroke="#666666" stroke-miterlimit="10"/>
<path d="M1 144.02C171.923 59.3357 376.453 -3.20587 569.882 24.3574C722.8 46.1421 876.357 136.452 1033.29 125.073C1137.59 117.505 1205.06 29.5479 1303.55 11.6497C1400.71 -6.01845 1489.2 66.8785 1561.86 120.139C1601.33 149.057 1642.45 178.308 1689 194.774C1769.23 223.156 1842.46 204.439 1919.18 176.007" stroke="#666666" stroke-miterlimit="10"/>
<path d="M1 120.343C173.739 46.5 375.404 -2.95027 565.023 20.4709C718.196 39.3919 873.186 114.897 1029.27 104.567C1131.71 97.7913 1210.02 24.2295 1308.84 8.19778C1400.05 -6.58106 1486.03 48.4433 1560.66 93.24C1681.97 166.06 1782.07 189.047 1919.18 144.173" stroke="#666666" stroke-miterlimit="10"/>
<path d="M1 96.6663C174.762 34.9685 366.043 0.987383 551.084 16.61C707.454 29.8291 862.955 91.5525 1020.94 83.6261C1126.9 78.3078 1217.69 15.5617 1321.99 4.925C1408.15 -3.87071 1489.49 35.2753 1565.29 71.0718C1686.88 128.525 1787.11 150.208 1919.18 113.005" stroke="#666666" stroke-miterlimit="10"/>
<path d="M1 72.9894C177.882 23.9482 366.734 1.1152 550.393 14.1298C703.669 24.9966 857.533 70.6371 1011.83 64.0147C1120.2 59.3612 1221.32 13.286 1328.84 3.82551C1419.33 -4.12643 1504.29 27.4256 1588.44 56.523C1701.46 95.6179 1801.05 110.167 1919.18 82.859" stroke="#666666" stroke-miterlimit="10"/>
<path d="M1 49.3382C175.299 15.5872 355.864 2.26579 533.386 10.1922C687.966 17.0958 842.367 47.3694 997.382 43.2783C1116.05 40.1589 1231.83 8.53017 1350.25 2.36806C1434.75 -2.02979 1516.44 17.4282 1598.21 36.3236C1707.11 61.4834 1808.06 73.194 1919.18 54.0428" stroke="#666666" stroke-miterlimit="10"/>
<path d="M1 25.6614C173.918 7.76314 348.601 2.26582 522.414 6.17786C675.229 9.62967 827.968 24.8432 980.911 22.7977C1110.99 21.059 1240.4 4.79714 1370.43 1.57546C1554.86 -3.00138 1734.19 45.5796 1919.18 26.9654" stroke="#666666" stroke-miterlimit="10"/>
<path d="M1 1.98457C640.369 -1.54394 1279.81 5.84548 1919.18 1.98457" stroke="#666666" stroke-miterlimit="10"/>
</g>
</svg>
