<svg width="389" height="149" viewBox="0 0 389 149" fill="none" xmlns="http://www.w3.org/2000/svg">
<g clip-path="url(#clip0_372_358)">
<mask id="path-1-inside-1_372_358" fill="white">
<path d="M0 0H389V149H0V0Z"/>
</mask>
<g clip-path="url(#clip1_372_358)">
<path fill-rule="evenodd" clip-rule="evenodd" d="M354.949 150.385C359.16 147.668 362.999 144.915 366.697 142.602C370.398 147.232 374.336 152.482 378.096 157.836C374.653 160.866 370.984 163.822 367.024 167.216C363.149 161.562 359.01 155.944 354.949 150.385Z" fill="#1A1A1A"/>
<path fill-rule="evenodd" clip-rule="evenodd" d="M368.46 141.474C371.982 139.38 375.164 137.151 378.321 135.331C381.831 139.464 385.195 143.762 388.78 148.38C385.962 150.841 382.86 153.351 379.748 156.139C376.027 151.25 372.17 146.071 368.46 141.474Z" fill="#1A1A1A"/>
<path fill-rule="evenodd" clip-rule="evenodd" d="M167.458 118.833C180.023 116.183 191.569 113.572 202.443 111.086C206.634 117.857 210.912 124.323 214.918 131.262C204.37 134.203 192.732 137.993 179.846 141.854C175.653 133.863 171.59 126.304 167.457 118.833H167.458Z" fill="#1A1A1A"/>
<path fill-rule="evenodd" clip-rule="evenodd" d="M239.92 111.187C248.692 109.239 256.41 107.317 264.091 105.865C267.858 110.975 271.96 116.269 276.05 121.818C268.556 124.099 260.689 126.548 252.236 129.257C248.298 123.171 244.01 116.92 239.92 111.185V111.187Z" fill="#1A1A1A"/>
<path fill-rule="evenodd" clip-rule="evenodd" d="M250.241 71.4109C257.227 71.1304 263.764 70.7065 270.071 70.3711C273.619 74.2528 277.092 78.0385 280.431 81.9721C274.313 82.5286 267.817 83.236 260.906 84.2483C257.457 79.8147 254.014 75.5213 250.241 71.4109Z" fill="#1A1A1A"/>
<path fill-rule="evenodd" clip-rule="evenodd" d="M301.982 152.755C308.612 149.358 314.654 146.388 320.382 143.551C324.331 149.173 328.498 154.991 332.686 160.909C327.185 164.662 321.163 168.8 314.821 173.153C310.469 165.81 306.272 159.315 301.982 152.753V152.755Z" fill="#1A1A1A"/>
<path fill-rule="evenodd" clip-rule="evenodd" d="M323.914 141.482C329.208 139.036 334.207 136.652 338.941 134.279C342.719 139.129 346.513 144.247 350.312 149.506C345.831 152.615 341.141 155.585 336.022 158.55C332.054 152.927 327.952 147.173 323.914 141.483V141.482Z" fill="#1A1A1A"/>
<path fill-rule="evenodd" clip-rule="evenodd" d="M341.679 132.89C345.982 130.454 350.101 128.656 354.187 126.875C357.743 131.41 361.392 136.043 365.143 140.725C361.278 142.898 357.237 145.42 353.164 148.22C349.391 143.038 345.449 137.844 341.679 132.89Z" fill="#1A1A1A"/>
<path fill-rule="evenodd" clip-rule="evenodd" d="M355.975 126.377C359.606 124.616 363.191 122.96 366.681 121.495C369.772 125.401 373.042 129.294 376.269 133.188C373.1 135.153 369.744 137.269 366.342 139.538C362.841 135.08 359.306 130.619 355.977 126.377H355.975Z" fill="#1A1A1A"/>
<path fill-rule="evenodd" clip-rule="evenodd" d="M379.041 115.663C381.926 114.614 384.444 113.439 386.946 112.282C389.637 115.319 392.436 118.508 395.014 121.513C392.742 122.982 390.532 124.563 387.821 125.955C384.978 122.529 382.04 119.068 379.041 115.662V115.663Z" fill="#1A1A1A"/>
<path fill-rule="evenodd" clip-rule="evenodd" d="M388.275 111.739C390.705 110.586 392.899 109.438 395.058 108.589C397.565 111.314 399.884 113.967 402.478 116.912C400.501 118.2 398.466 119.445 396.362 120.87C393.606 117.777 391.017 114.732 388.275 111.739Z" fill="#1A1A1A"/>
<path fill-rule="evenodd" clip-rule="evenodd" d="M284.364 89.7536C290.212 88.9486 295.785 88.261 301.194 87.4133C304.567 91.4673 307.966 95.3765 311.543 99.4458C306.388 100.534 300.901 101.562 295.057 103.007C291.467 98.473 287.868 94.108 284.363 89.7536H284.364Z" fill="#1A1A1A"/>
<path fill-rule="evenodd" clip-rule="evenodd" d="M287.502 51.4944C292.545 51.7581 297.334 51.9899 301.895 52.2064C304.708 54.9995 307.491 57.8323 310.361 60.537C305.799 60.5644 301.233 60.5004 296.321 60.4333C293.472 57.4085 290.457 54.4507 287.504 51.4944H287.502Z" fill="#1A1A1A"/>
<path fill-rule="evenodd" clip-rule="evenodd" d="M262.241 139.321C270.361 136.299 278.091 133.611 285.257 130.966C289.431 136.944 293.685 143.282 297.822 149.69C290.972 153.2 283.427 156.764 275.717 160.37C271.225 153.311 266.742 146.045 262.242 139.323L262.241 139.321Z" fill="#1A1A1A"/>
<path fill-rule="evenodd" clip-rule="evenodd" d="M311.518 122.37C317.129 120.469 322.249 118.732 327.123 116.944C330.658 121.302 334.356 126.035 337.904 130.902C333.262 133.146 328.181 135.528 323.05 137.989C319.342 132.582 315.347 127.284 311.517 122.37H311.518Z" fill="#1A1A1A"/>
<path fill-rule="evenodd" clip-rule="evenodd" d="M329.908 116.08C334.555 114.518 338.908 113.139 343.08 111.878C346.575 116.008 349.967 120.201 353.462 124.371C349.493 126.067 345.449 127.772 341.075 129.893C337.285 125.023 333.654 120.333 329.908 116.08Z" fill="#1A1A1A"/>
<path fill-rule="evenodd" clip-rule="evenodd" d="M344.878 111.419C348.746 110.17 352.499 108.941 356.182 107.693C359.25 111.333 362.319 114.912 365.456 118.624C362.064 120.144 358.482 121.85 354.837 123.494C351.425 119.376 348.056 115.307 344.88 111.417L344.878 111.419Z" fill="#1A1A1A"/>
<path fill-rule="evenodd" clip-rule="evenodd" d="M358.615 106.953C361.915 105.957 365.148 105 368.101 104.047C371.186 107.488 374.114 110.69 377.003 114.131C374.234 115.224 371.253 116.464 367.989 118.025C364.911 114.108 361.667 110.438 358.615 106.953Z" fill="#1A1A1A"/>
<path fill-rule="evenodd" clip-rule="evenodd" d="M369.548 103.739C372.549 102.911 375.237 101.963 377.939 101.185C380.586 104.047 383.285 107.124 385.801 110.104C383.36 111.173 380.851 112.361 377.938 113.35C375.233 110.257 372.361 106.907 369.55 103.739H369.548Z" fill="#1A1A1A"/>
<path fill-rule="evenodd" clip-rule="evenodd" d="M379.378 100.722C381.964 100.025 384.398 99.4214 386.696 98.749C389.122 101.397 391.617 104.003 393.92 106.596C391.816 107.397 389.51 108.341 387.221 109.473C384.662 106.471 382.027 103.616 379.378 100.722Z" fill="#1A1A1A"/>
<path fill-rule="evenodd" clip-rule="evenodd" d="M387.755 98.4166C389.946 97.8129 392.043 97.1725 394.048 96.4712C396.29 98.8877 398.553 101.297 400.666 103.646C398.9 104.494 396.951 105.335 394.95 106.124C392.555 103.587 390.188 100.978 387.754 98.4166H387.755Z" fill="#1A1A1A"/>
<path fill-rule="evenodd" clip-rule="evenodd" d="M321.945 85.2805C326.327 84.8322 330.546 84.4923 334.591 84.0486C337.583 87.2732 340.633 90.5756 343.677 93.8322C339.774 94.4878 335.876 95.273 331.501 96.1603C328.309 92.4631 325.151 88.7856 321.945 85.2805Z" fill="#1A1A1A"/>
<path fill-rule="evenodd" clip-rule="evenodd" d="M336.43 83.7559C340.244 83.2756 343.971 82.9509 347.319 82.5042C350.251 85.5168 353.15 88.5981 355.872 91.6154C352.558 92.2588 349.138 92.9083 345.445 93.4998C342.513 90.3393 339.422 86.9698 336.43 83.7559Z" fill="#1A1A1A"/>
<path fill-rule="evenodd" clip-rule="evenodd" d="M348.98 82.3194C352.46 81.984 355.579 81.6867 358.606 81.3955C361.227 84.0606 363.976 86.9177 366.593 89.6545C363.683 90.2033 360.673 90.7583 357.504 91.4307C354.747 88.3174 351.838 85.2437 348.98 82.3194Z" fill="#1A1A1A"/>
<path fill-rule="evenodd" clip-rule="evenodd" d="M360.034 81.231C362.996 80.9474 365.808 80.7751 368.494 80.5266C370.952 83.0118 373.567 85.7607 375.94 88.2062C373.384 88.6377 370.703 88.9579 367.957 89.3908C365.449 86.77 362.653 83.9128 360.032 81.231H360.034Z" fill="#1A1A1A"/>
<path fill-rule="evenodd" clip-rule="evenodd" d="M369.808 80.4305C372.399 80.1423 374.822 79.7901 377.253 79.6941C379.537 81.9704 381.877 84.3397 384.186 86.7882C382.007 87.1648 379.687 87.5963 377.186 88.0613C374.779 85.4877 372.227 82.9111 369.808 80.4305Z" fill="#1A1A1A"/>
<path fill-rule="evenodd" clip-rule="evenodd" d="M378.379 79.6544C380.644 79.4379 382.732 79.2382 384.851 79.0979C387.081 81.2553 389.321 83.4751 391.258 85.5364C389.4 85.9085 387.411 86.2927 385.214 86.5686C382.979 84.1795 380.754 81.9231 378.381 79.6544H378.379Z" fill="#1A1A1A"/>
<path fill-rule="evenodd" clip-rule="evenodd" d="M385.804 79.0262C387.834 78.8189 389.813 78.6862 391.585 78.4941C393.633 80.4914 395.65 82.5512 397.644 84.5408C395.974 84.9327 394.06 85.1324 392.262 85.3977C390.16 83.3135 388.078 81.1836 385.804 79.0278V79.0262Z" fill="#1A1A1A"/>
<path fill-rule="evenodd" clip-rule="evenodd" d="M388.91 66.7455C385.816 66.4771 382.686 66.4848 379.278 66.3292C378.639 66.2698 377.917 66.2164 377.17 65.9893C380.729 66.3293 383.989 66.253 387.135 66.4421C387.876 66.718 388.44 66.6189 388.91 66.747V66.7455Z" fill="#1A1A1A"/>
<path fill-rule="evenodd" clip-rule="evenodd" d="M326.895 73.1869C330.841 72.9354 334.757 72.7951 338.293 72.5664C341.126 75.4068 343.926 78.296 346.659 81.237C343.163 81.5892 339.437 81.9292 335.727 82.3607C332.801 79.1955 329.775 76.0548 326.897 73.1854L326.895 73.1869Z" fill="#1A1A1A"/>
<path fill-rule="evenodd" clip-rule="evenodd" d="M340.013 72.4674C343.544 72.411 346.897 72.3393 350.044 72.2036C352.598 74.829 355.407 77.578 357.881 80.1988C354.903 80.4915 351.669 80.7187 348.329 80.9916C345.624 78.1299 342.773 75.2376 340.013 72.4689V72.4674Z" fill="#1A1A1A"/>
<path fill-rule="evenodd" clip-rule="evenodd" d="M351.56 72.1913C354.678 72.1151 357.608 72.1196 360.498 72.051C362.953 74.3913 365.401 76.8811 367.778 79.4455C365.064 79.5934 362.256 79.7901 359.329 80.1331C356.893 77.5245 354.123 74.7633 351.558 72.1898L351.56 72.1913Z" fill="#1A1A1A"/>
<path fill-rule="evenodd" clip-rule="evenodd" d="M361.845 71.9673C364.598 71.9109 367.164 71.9597 369.655 71.8789C372.01 74.1399 374.3 76.3934 376.526 78.63C374.181 78.7337 371.727 79.0295 369.098 79.3146C366.702 76.866 364.255 74.3366 361.845 71.9673Z" fill="#1A1A1A"/>
<path fill-rule="evenodd" clip-rule="evenodd" d="M370.856 71.8224C373.324 71.8696 375.472 71.7538 377.722 71.7751C379.941 73.9203 382.098 75.9846 384.188 78.0856C382.112 78.2731 379.946 78.45 377.651 78.5933C375.426 76.317 373.163 74.1642 370.856 71.8224Z" fill="#1A1A1A"/>
<path fill-rule="evenodd" clip-rule="evenodd" d="M378.752 71.6989C380.956 71.6745 382.952 71.6669 384.946 71.5952C386.99 73.5711 388.967 75.5242 390.953 77.5169C389.172 77.8615 387.24 77.9484 385.217 78.0886C383.047 75.9313 381.011 73.8471 378.751 71.6989H378.752Z" fill="#1A1A1A"/>
<path fill-rule="evenodd" clip-rule="evenodd" d="M385.876 71.6182C387.736 71.6182 389.628 71.702 391.24 71.6578C393.107 73.4066 395.02 75.2788 396.909 77.0718C395.286 77.1678 393.615 77.3035 391.851 77.5124C389.943 75.5319 387.882 73.591 385.876 71.6182Z" fill="#1A1A1A"/>
<path fill-rule="evenodd" clip-rule="evenodd" d="M317.008 62.6519C321.159 62.6961 325.165 62.7555 328.907 62.8485C331.638 65.5898 334.362 68.2259 337.052 70.9444C333.37 71.0679 329.498 71.2523 325.61 71.42C322.695 68.4714 319.771 65.4816 317.008 62.6534V62.6519Z" fill="#1A1A1A"/>
<path fill-rule="evenodd" clip-rule="evenodd" d="M330.655 62.9719C334.309 62.9841 337.845 63.1442 341.134 63.2525C343.72 65.7696 346.324 68.2868 348.832 70.7872C345.633 70.7552 342.204 70.807 338.749 70.9671C336.108 68.1862 333.409 65.5806 330.655 62.9719Z" fill="#1A1A1A"/>
<path fill-rule="evenodd" clip-rule="evenodd" d="M342.797 63.2798C346.036 63.3438 349.173 63.4719 352.135 63.6045C354.496 65.8778 356.9 68.2227 359.307 70.688C356.468 70.7078 353.492 70.7642 350.423 70.8115C347.921 68.2745 345.317 65.7101 342.799 63.2798H342.797Z" fill="#1A1A1A"/>
<path fill-rule="evenodd" clip-rule="evenodd" d="M353.496 63.6199C356.443 63.7876 358.987 63.8394 361.675 63.9919C364.062 66.2133 366.229 68.3462 368.522 70.5661C365.961 70.5783 363.355 70.5509 360.565 70.6057C358.309 68.2456 355.901 65.9007 353.496 63.6199Z" fill="#1A1A1A"/>
<path fill-rule="evenodd" clip-rule="evenodd" d="M363.054 64.1077C365.502 64.1549 367.9 64.2235 370.285 64.3638C372.494 66.4968 374.609 68.5215 376.659 70.5142C374.522 70.6224 372.222 70.6377 369.719 70.5828C367.505 68.3538 365.289 66.265 363.054 64.1077Z" fill="#1A1A1A"/>
<path fill-rule="evenodd" clip-rule="evenodd" d="M371.457 64.4004C373.79 64.5605 375.842 64.6489 377.811 64.7282C379.896 66.6523 382.029 68.5931 383.94 70.4745C381.991 70.5066 379.953 70.5706 377.718 70.5142C375.666 68.5291 373.588 66.509 371.457 64.4004Z" fill="#1A1A1A"/>
<path fill-rule="evenodd" clip-rule="evenodd" d="M379.038 64.96C381.113 65.1322 382.949 65.2283 384.82 65.3396C386.728 67.1478 388.724 69.0124 390.567 70.8786C388.806 70.7429 386.953 70.7185 385.019 70.6392C383.102 68.8341 381.196 67.0304 379.038 64.9615V64.96Z" fill="#1A1A1A"/>
<path fill-rule="evenodd" clip-rule="evenodd" d="M321.857 54.1794C325.656 54.3959 329.251 54.5438 332.728 54.8274C335.304 57.2882 337.792 59.6697 340.308 62.2341C336.877 62.0024 333.447 61.978 329.729 61.8697C327.203 59.3007 324.565 56.7363 321.858 54.1794H321.857Z" fill="#1A1A1A"/>
<path fill-rule="evenodd" clip-rule="evenodd" d="M334.468 55.0728C337.871 55.2283 340.998 55.521 344.153 55.8534C346.551 58.0626 348.873 60.3145 351.251 62.6075C348.186 62.3514 345.203 62.3437 341.889 62.2401C339.391 59.7945 336.882 57.3063 334.468 55.0728Z" fill="#1A1A1A"/>
<path fill-rule="evenodd" clip-rule="evenodd" d="M345.61 55.9768C348.606 56.2086 351.383 56.5043 354.195 56.8093C356.472 58.8736 358.67 61.0234 360.961 63.1792C358.25 62.9032 355.587 62.8468 352.61 62.6273C350.377 60.4669 348.004 58.2378 345.61 55.9768Z" fill="#1A1A1A"/>
<path fill-rule="evenodd" clip-rule="evenodd" d="M355.564 56.9084C358.214 57.1448 360.71 57.2881 363.187 57.5244C365.326 59.5247 367.402 61.5022 369.524 63.5299C367.141 63.4064 364.789 63.3012 362.15 63.1823C359.894 61.0539 357.804 58.985 355.564 56.9084Z" fill="#1A1A1A"/>
<path fill-rule="evenodd" clip-rule="evenodd" d="M364.418 57.6738C366.655 57.8217 368.883 58.0336 371.175 58.3584C373.187 60.1986 375.202 62.1166 377.159 63.9523C375.075 63.8517 372.915 63.6443 370.693 63.5879C368.528 61.5586 366.446 59.6345 364.418 57.6738Z" fill="#1A1A1A"/>
<path fill-rule="evenodd" clip-rule="evenodd" d="M378.022 59.79C379.99 60.034 381.875 60.2581 383.605 60.4106C385.383 62.0465 387.28 63.78 389.11 65.5013C387.371 65.3458 385.579 65.3046 383.792 65.1933C381.976 63.408 380.013 61.6044 378.022 59.7916V59.79Z" fill="#1A1A1A"/>
<path fill-rule="evenodd" clip-rule="evenodd" d="M384.668 60.502C386.354 60.6498 387.962 60.7581 389.523 60.9548C391.157 62.5312 392.805 64.004 394.376 65.5439C392.996 65.5241 391.42 65.4113 389.916 65.364C388.236 63.7952 386.414 62.0861 384.668 60.502Z" fill="#1A1A1A"/>
<path fill-rule="evenodd" clip-rule="evenodd" d="M325.966 47.2012C329.384 47.6052 332.68 47.994 336.002 48.3904C338.355 50.5828 340.652 52.7082 343.069 54.9372C339.81 54.5133 336.752 54.3288 333.265 53.9523C330.882 51.644 328.407 49.4698 325.966 47.2012Z" fill="#1A1A1A"/>
<path fill-rule="evenodd" clip-rule="evenodd" d="M337.529 48.5504C340.572 48.8827 343.629 49.3142 346.535 49.6786C348.691 51.7155 350.937 53.7722 353.188 55.8808C350.342 55.5652 347.594 55.3441 344.523 55.088C342.11 52.8239 339.806 50.7184 337.529 48.5488V48.5504Z" fill="#1A1A1A"/>
<path fill-rule="evenodd" clip-rule="evenodd" d="M347.926 49.8418C350.628 50.1498 353.278 50.5142 355.996 50.9228C358.066 52.8682 360.044 54.649 362.206 56.6417C359.732 56.4054 357.206 56.2056 354.548 56.0288C352.34 53.908 350.057 51.8025 347.926 49.8418Z" fill="#1A1A1A"/>
<path fill-rule="evenodd" clip-rule="evenodd" d="M357.178 51.1072C359.577 51.4746 361.975 51.7917 364.252 52.0997C366.23 53.9171 368.299 55.7405 370.265 57.5305C368.006 57.2987 365.783 57.0548 363.439 56.7895C361.271 54.8242 359.219 52.9642 357.178 51.1072Z" fill="#1A1A1A"/>
<path fill-rule="evenodd" clip-rule="evenodd" d="M371.59 53.6641C373.654 53.9964 375.565 54.2251 377.36 54.4569C379.214 56.1568 381.086 57.8309 382.844 59.5431C381.078 59.3586 379.271 59.1756 377.267 58.9195C375.402 57.1829 373.544 55.4784 371.59 53.6656V53.6641Z" fill="#1A1A1A"/>
<path fill-rule="evenodd" clip-rule="evenodd" d="M378.691 54.9676C380.518 55.2115 382.146 55.4677 383.806 55.7757C385.532 57.3155 387.226 58.8402 389.039 60.4807C387.481 60.2764 385.797 60.1483 384.112 60.008C382.348 58.3187 380.555 56.6462 378.69 54.9661L378.691 54.9676Z" fill="#1A1A1A"/>
<path fill-rule="evenodd" clip-rule="evenodd" d="M318.633 39.1006C322.236 39.6663 325.639 40.1709 328.911 40.7366C331.261 42.6942 333.49 44.7067 335.901 46.9114C332.604 46.4067 329.275 46.0469 325.873 45.6063C323.448 43.362 321.054 41.2321 318.635 39.0991L318.633 39.1006Z" fill="#1A1A1A"/>
<path fill-rule="evenodd" clip-rule="evenodd" d="M330.464 40.8997C333.685 41.4546 336.76 41.8876 339.777 42.4106C341.867 44.3514 344.057 46.2237 346.275 48.2576C343.348 47.8337 340.327 47.4617 337.271 46.9967C335.032 44.9598 332.796 42.9747 330.464 40.8997Z" fill="#1A1A1A"/>
<path fill-rule="evenodd" clip-rule="evenodd" d="M322.121 33.6868C325.397 34.2646 328.537 34.8989 331.606 35.4721C333.814 37.4282 335.973 39.3051 338.135 41.188C335.238 40.6909 332.094 40.2107 328.795 39.6496C326.616 37.7088 324.343 35.7023 322.12 33.6868H322.121Z" fill="#1A1A1A"/>
<path fill-rule="evenodd" clip-rule="evenodd" d="M286.49 35.7405C291.202 36.3915 295.591 36.9968 299.765 37.4313C302.542 39.8265 305.085 42.2842 307.545 44.5895C303.493 44.2495 299.179 43.7616 294.604 43.2691C292.001 40.7824 289.294 38.2622 286.491 35.742L286.49 35.7405Z" fill="#1A1A1A"/>
<path fill-rule="evenodd" clip-rule="evenodd" d="M387.062 87.581C389.181 87.2532 391.127 86.8843 392.985 86.4924C395.304 88.8495 397.477 91.1136 399.506 93.2588C397.801 93.7467 395.956 94.355 394.062 94.9267C391.683 92.4095 389.482 90.0967 387.062 87.5795V87.581Z" fill="#1A1A1A"/>
<path fill-rule="evenodd" clip-rule="evenodd" d="M379.281 89.2171C381.691 88.8054 383.93 88.3404 386.113 87.8967C388.448 90.3819 390.77 92.774 393.108 95.247C391.107 95.8995 388.97 96.5353 386.78 97.1757C384.304 94.474 381.726 91.7663 379.281 89.2171Z" fill="#1A1A1A"/>
<path fill-rule="evenodd" clip-rule="evenodd" d="M369.439 90.6457C372.206 90.0938 374.854 89.6806 377.317 89.3208C379.845 91.8425 382.41 94.6021 384.922 97.2962C382.592 97.8527 380.076 98.4519 377.567 99.2813C374.804 96.2442 372.173 93.4236 369.438 90.6457H369.439Z" fill="#1A1A1A"/>
<path fill-rule="evenodd" clip-rule="evenodd" d="M359.318 92.4386C362.434 91.8303 365.504 91.1427 368.197 90.6106C370.957 93.512 373.751 96.3722 376.389 99.3376C373.731 100.15 370.919 101.038 367.849 101.763C365.037 98.6332 362.202 95.5962 359.318 92.4402V92.4386Z" fill="#1A1A1A"/>
<path fill-rule="evenodd" clip-rule="evenodd" d="M347.286 94.5883C350.896 93.9601 354.476 93.4158 357.568 92.5239C360.48 95.7379 363.456 98.9792 366.218 102.135C363.148 103.024 359.925 103.928 356.511 104.788C353.39 101.283 350.402 97.9654 347.285 94.5883H347.286Z" fill="#1A1A1A"/>
<path fill-rule="evenodd" clip-rule="evenodd" d="M333.655 97.473C337.897 96.5963 341.797 95.8127 345.463 94.9802C348.61 98.4411 351.789 101.899 354.896 105.505C351.07 106.564 347.542 107.886 343.493 108.921C340.149 105.072 336.842 101.239 333.655 97.473Z" fill="#1A1A1A"/>
<path fill-rule="evenodd" clip-rule="evenodd" d="M317.9 101.082C322.861 100.109 327.257 99.1897 331.689 98.2246C334.997 102.026 338.298 105.895 341.603 109.678C337.464 111.047 333.08 112.387 328.481 113.759C324.842 109.321 321.384 105.148 317.9 101.082Z" fill="#1A1A1A"/>
<path fill-rule="evenodd" clip-rule="evenodd" d="M153.914 79.1102C157.037 76.6129 160.094 74.0927 162.888 71.792C167.402 74.3488 171.895 76.7303 176.434 79.4304C173.901 82.0757 171.394 84.849 168.363 87.6863C163.469 84.7926 158.579 81.9156 153.916 79.1102H153.914Z" fill="#1A1A1A"/>
<path fill-rule="evenodd" clip-rule="evenodd" d="M307.098 73.9845C308.34 72.7327 309.553 71.5679 310.816 70.5708C312.574 71.8027 314.405 73.1154 316.214 74.3641C315.091 75.5487 314.03 76.8218 312.891 78.2534C310.944 76.7974 309.003 75.3521 307.096 73.9845H307.098Z" fill="#1A1A1A"/>
<path fill-rule="evenodd" clip-rule="evenodd" d="M356.265 27.7406C356.748 27.0027 357.192 26.2343 357.6 25.4644C359.182 26.774 360.872 28.1919 362.53 29.5733C362.272 30.4591 361.906 31.2686 361.493 32.1362C359.758 30.6771 357.994 29.1936 356.266 27.7406H356.265Z" fill="#1A1A1A"/>
<path fill-rule="evenodd" clip-rule="evenodd" d="M99.4258 155.755C103.329 152.698 107.01 149.77 110.586 147.191C115.242 148.625 119.811 150.321 124.604 151.941C121.128 154.758 117.707 157.803 114.191 161.084C109.191 159.202 104.076 157.507 99.4242 155.754L99.4258 155.755Z" fill="#1A1A1A"/>
<path fill-rule="evenodd" clip-rule="evenodd" d="M345.123 37.6569C345.507 37.2346 345.81 36.8229 346.111 36.4265C347.139 37.1736 348.174 37.9069 349.173 38.6388C348.942 39.0916 348.703 39.6237 348.435 40.0689C347.329 39.2684 346.264 38.4741 345.123 37.6554V37.6569Z" fill="#1A1A1A"/>
<path fill-rule="evenodd" clip-rule="evenodd" d="M309.693 18.3353C310.62 17.9404 311.499 17.5912 312.368 17.2695C313.679 18.1614 314.989 19.0838 316.329 20.0566C315.598 20.4972 314.794 20.889 313.881 21.3952C312.516 20.3295 311.104 19.3339 309.693 18.3368V18.3353Z" fill="#1A1A1A"/>
<path fill-rule="evenodd" clip-rule="evenodd" d="M112.489 54.5163C116.164 53.0039 119.581 51.6836 122.827 50.4395C127.026 52.1806 131.001 53.8485 134.805 55.6171C131.872 57.0823 128.782 58.5825 125.326 60.4273C120.889 58.3584 116.577 56.3063 112.489 54.5163Z" fill="#1A1A1A"/>
<path fill-rule="evenodd" clip-rule="evenodd" d="M324.723 15.978C325.283 15.7142 325.702 15.3681 326.146 15.1074C327.214 15.8057 328.232 16.5939 329.26 17.3547C328.883 17.6886 328.536 18.0835 328.082 18.3884C327.058 17.6063 325.892 16.7784 324.723 15.978Z" fill="#1A1A1A"/>
<path fill-rule="evenodd" clip-rule="evenodd" d="M348.086 10.2179C348.383 10.0014 348.708 9.83523 349 9.6355C349.769 10.2316 350.613 10.8476 351.352 11.4163C351.096 11.648 350.874 11.8828 350.646 12.1511C349.803 11.5154 348.928 10.8674 348.086 10.2179Z" fill="#1A1A1A"/>
<path fill-rule="evenodd" clip-rule="evenodd" d="M96.603 104.148C99.2194 102.896 101.337 101.715 103.571 100.583C106.851 101.512 109.993 102.352 113.123 103.261C111.203 104.421 109.029 105.773 106.727 107.054C103.299 106.121 99.94 105.105 96.603 104.148Z" fill="#1A1A1A"/>
<path fill-rule="evenodd" clip-rule="evenodd" d="M289.144 12.2793C290.062 12.0079 291 11.8219 291.794 11.5444C293.072 12.3784 294.421 13.2444 295.63 14.0479C294.86 14.3864 294.14 14.6745 293.289 14.9916C292.017 14.118 290.53 13.1545 289.144 12.2793Z" fill="#1A1A1A"/>
<path fill-rule="evenodd" clip-rule="evenodd" d="M337.488 16.9187C338.018 16.751 338.54 16.6321 339.028 16.4827C339.849 17.0742 340.78 17.7237 341.643 18.3092C341.151 18.483 340.699 18.6446 340.204 18.8215C339.274 18.175 338.416 17.5667 337.487 16.9187H337.488Z" fill="#1A1A1A"/>
<path fill-rule="evenodd" clip-rule="evenodd" d="M349.962 30.5216C350.492 30.3478 350.987 30.1481 351.474 30.02C352.248 30.546 353.099 31.1101 353.916 31.6346C353.425 31.8084 352.934 31.9914 352.476 32.1987C351.664 31.6453 350.812 31.0888 349.962 30.5216Z" fill="#1A1A1A"/>
<path fill-rule="evenodd" clip-rule="evenodd" d="M267.599 37.7971C268.748 37.4968 269.85 37.1903 270.908 36.9067C272.302 37.6584 273.659 38.3734 275.13 39.1602C274.042 39.4087 272.974 39.7487 271.908 40.0643C270.521 39.2897 269.004 38.5213 267.599 37.7971Z" fill="#1A1A1A"/>
<path fill-rule="evenodd" clip-rule="evenodd" d="M362.781 42.4273C363.272 42.255 363.768 42.0279 364.219 41.8464C364.98 42.3541 365.665 42.8192 366.391 43.3147C365.978 43.5068 365.561 43.7233 365.105 43.955C364.343 43.4275 363.578 42.967 362.781 42.4258V42.4273Z" fill="#1A1A1A"/>
<path fill-rule="evenodd" clip-rule="evenodd" d="M356.548 22.2457C356.978 22.1344 357.399 22.0917 357.826 22.0125C358.451 22.4393 359.108 22.9166 359.738 23.3175C359.386 23.3938 358.958 23.5035 358.6 23.6255C357.905 23.1453 357.246 22.6818 356.548 22.2472V22.2457Z" fill="#1A1A1A"/>
<path fill-rule="evenodd" clip-rule="evenodd" d="M41 132.239C44.4916 131.187 48.1837 129.939 51.9155 128.854C55.3719 129.595 59.1053 130.123 62.6152 130.771C59.2598 131.799 55.6259 133.003 52.2689 134.197C48.3474 133.537 44.7196 132.928 41 132.241V132.239Z" fill="#1A1A1A"/>
<path fill-rule="evenodd" clip-rule="evenodd" d="M213.443 64.3365C215.181 63.9127 217.043 63.6596 218.817 63.2754C220.564 63.8837 222.154 64.4158 223.716 65.0409C222.106 65.3367 220.363 65.7529 218.544 66.1691C216.844 65.541 215.099 64.9372 213.445 64.3365H213.443Z" fill="#1A1A1A"/>
<path fill-rule="evenodd" clip-rule="evenodd" d="M219.377 95.924C220.945 94.9436 222.496 93.9679 224.057 93.1187C226.242 93.9587 228.47 94.9467 230.713 95.8996C229.261 96.8677 227.818 97.8115 226.36 98.9123C223.929 97.8084 221.626 96.883 219.377 95.9225V95.924Z" fill="#1A1A1A"/>
<path fill-rule="evenodd" clip-rule="evenodd" d="M257.351 56.9176C258.765 56.1096 260.068 55.3884 261.278 54.6855C263.139 55.7177 265.078 56.8139 267.015 57.93C265.797 58.6786 264.709 59.5781 263.352 60.3511C261.292 59.1939 259.326 58.0428 257.351 56.9176Z" fill="#1A1A1A"/>
</g>
<g clip-path="url(#clip2_372_358)">
<path fill-rule="evenodd" clip-rule="evenodd" d="M258.702 18.7648C259.251 19.148 259.051 19.7019 261.426 19.3567C265.315 18.0664 260.695 19.7099 261.356 19.5574C260.209 19.3668 260.767 18.6624 260.829 18.231C260.314 18.3634 259.484 18.542 258.702 18.7648Z" fill="#1A1A1A"/>
<path fill-rule="evenodd" clip-rule="evenodd" d="M-2.12201 1.09726C4.15146 -4.87487 9.35142 -10.4156 14.1543 -15.6291C6.04109 -21.519 -1.83466 -26.9774 -10.5644 -32.7368C-13.7171 -30.1621 -17.2569 -27.5333 -21.0023 -24.782L-21.0023 -10.7106C-14.5233 -6.74518 -8.25979 -2.81192 -2.12201 1.09726Z" fill="#1A1A1A"/>
<path fill-rule="evenodd" clip-rule="evenodd" d="M-11.7057 80.0534C-4.90342 69.9454 1.53964 61.1939 7.46191 52.0611C-1.77668 46.6147 -10.9095 40.9536 -21.0021 35.2363L-21.0021 75.0787C-17.8694 76.7222 -14.7706 78.3798 -11.7057 80.0534Z" fill="#1A1A1A"/>
<path fill-rule="evenodd" clip-rule="evenodd" d="M10.0859 47.9673C15.7468 39.9342 21.1682 32.4209 26.1367 25.4674C17.4588 19.6358 8.81287 13.8603 -0.367862 8.10889C-6.61539 14.8596 -13.5713 21.7689 -20.3256 29.6656C-9.68827 35.72 0.240729 42.0132 10.0859 47.9673Z" fill="#1A1A1A"/>
<path fill-rule="evenodd" clip-rule="evenodd" d="M28.4535 22.1402C32.3086 15.4778 36.5607 9.5819 40.5195 3.84857C33.4399 -1.44126 26.0171 -6.90569 18.2731 -12.1875C13.2348 -6.80937 8.09265 -1.29276 2.19432 4.89008C11.4329 10.782 20.1368 16.2885 28.4535 22.1402Z" fill="#1A1A1A"/>
<path fill-rule="evenodd" clip-rule="evenodd" d="M42.6241 1.23776C46.1799 -4.28486 49.7836 -9.31984 52.8105 -14.1702C46.7506 -19.0246 39.8805 -24.19 32.8727 -29.1206C28.9079 -24.6054 25.0389 -19.7932 20.5972 -14.5996C27.9961 -9.5165 35.349 -4.0882 42.6241 1.23776Z" fill="#1A1A1A"/>
<path fill-rule="evenodd" clip-rule="evenodd" d="M93.9257 152.104C96.4758 140.599 98.99 130.477 100.892 120.403C94.2031 115.463 87.2752 110.083 80.012 104.719C77.0269 114.548 73.8223 124.864 70.2765 135.952C78.2421 141.117 86.4231 146.74 93.9277 152.104L93.9257 152.104Z" fill="#1A1A1A"/>
<path fill-rule="evenodd" clip-rule="evenodd" d="M145.983 138.569C146.35 129.406 146.905 120.833 147.344 112.561C142.264 107.907 137.309 103.352 132.161 98.9731C131.433 106.996 130.507 115.517 129.182 124.581C134.984 129.105 140.603 133.62 145.983 138.569Z" fill="#1A1A1A"/>
<path fill-rule="evenodd" clip-rule="evenodd" d="M0.44 147.134C7.60939 133.648 14.5214 121.766 20.707 110.141C10.1595 104.042 -1.18423 97.7953 -12.506 91.5784C-15.3195 95.3832 -18.141 99.2563 -21.0003 103.228L-21.0003 136.666C-13.6733 140.208 -6.5518 143.69 0.44 147.134Z" fill="#1A1A1A"/>
<path fill-rule="evenodd" clip-rule="evenodd" d="M23.4833 104.763C28.6473 94.2371 33.4442 84.5204 38.1992 75.5943C29.4694 69.8429 20.0992 63.7162 10.4316 58.1836C4.4095 66.8789 -1.77018 76.2324 -8.42676 86.5171C2.72341 92.4592 13.0814 98.6621 23.4833 104.763Z" fill="#1A1A1A"/>
<path fill-rule="evenodd" clip-rule="evenodd" d="M39.5242 70.708C43.9699 62.0127 47.8569 54.088 51.5703 46.5746C44.2114 41.3952 36.597 35.9308 28.853 30.4382C23.9403 37.6526 18.5249 45.5512 12.8281 53.8692C22.4378 59.5765 30.9381 65.081 39.5262 70.708L39.5242 70.708Z" fill="#1A1A1A"/>
<path fill-rule="evenodd" clip-rule="evenodd" d="M54.2779 41.9408C57.4785 34.9974 60.5993 28.4413 63.7041 22.2324C57.3568 17.2777 50.6583 12.3009 43.7763 7.31811C39.7077 13.1959 35.8207 19.3467 31.9397 26.0613C39.2986 31.2649 46.8292 36.645 54.2759 41.9408L54.2779 41.9408Z" fill="#1A1A1A"/>
<path fill-rule="evenodd" clip-rule="evenodd" d="M65.5218 18.6424C68.7104 12.9994 71.063 7.59717 73.3936 2.2371C67.4593 -2.42662 61.3954 -7.21276 55.2676 -12.1313C52.4241 -7.06226 49.1238 -1.76239 45.4583 3.57963C52.2406 8.52831 59.0388 13.6977 65.5218 18.6424Z" fill="#1A1A1A"/>
<path fill-rule="evenodd" clip-rule="evenodd" d="M121.977 93.8139C123.031 86.1441 123.931 78.8354 125.04 71.7415C119.734 67.3166 114.618 62.8595 109.293 58.1677C107.868 64.9285 106.523 72.1248 104.631 79.7906C110.566 84.4985 116.278 89.2184 121.977 93.8159L121.977 93.8139Z" fill="#1A1A1A"/>
<path fill-rule="evenodd" clip-rule="evenodd" d="M172.049 89.6979C171.704 83.0836 171.4 76.8024 171.117 70.8202C167.461 67.1318 163.754 63.4815 160.214 59.7168C160.178 65.701 160.262 71.6892 160.35 78.1309C164.309 81.8675 168.18 85.8228 172.049 89.6959L172.049 89.6979Z" fill="#1A1A1A"/>
<path fill-rule="evenodd" clip-rule="evenodd" d="M57.1054 122.83C61.0602 112.18 64.5781 102.042 68.04 92.6419C60.2162 87.1675 51.9214 81.5886 43.5348 76.1624C38.9415 85.1466 34.2763 95.042 29.5572 105.154C38.7958 111.046 48.3058 116.926 57.1034 122.828L57.1054 122.83Z" fill="#1A1A1A"/>
<path fill-rule="evenodd" clip-rule="evenodd" d="M79.2901 58.1997C81.7783 50.8409 84.051 44.1263 86.3916 37.7327C80.6888 33.0971 74.4932 28.2467 68.1239 23.593C65.1867 29.6815 62.07 36.346 58.8494 43.0747C65.925 47.9391 72.859 53.1788 79.2901 58.2017L79.2901 58.1997Z" fill="#1A1A1A"/>
<path fill-rule="evenodd" clip-rule="evenodd" d="M87.5222 34.0804C89.5655 27.9858 91.3713 22.2766 93.0215 16.8041C87.616 12.2207 82.1287 7.77169 76.6714 3.18823C74.4505 8.39378 72.2197 13.6977 69.4441 19.435C75.8173 24.4058 81.9551 29.1678 87.5222 34.0804Z" fill="#1A1A1A"/>
<path fill-rule="evenodd" clip-rule="evenodd" d="M93.6223 14.4463C95.2565 9.37318 96.8648 4.45058 98.499 -0.37971C93.7341 -4.40328 89.0509 -8.42885 84.1922 -12.5427C82.2028 -8.09372 79.97 -3.39588 77.8189 1.38423C83.2084 5.85932 88.5341 10.2782 93.6243 14.4443L93.6223 14.4463Z" fill="#1A1A1A"/>
<path fill-rule="evenodd" clip-rule="evenodd" d="M127.831 44.5236C128.418 38.7762 128.863 33.2436 129.443 27.9377C125.223 24.0144 120.901 20.0129 116.639 16.0215C115.781 21.1407 114.753 26.252 113.592 31.9913C118.431 36.1774 123.244 40.3194 127.831 44.5236Z" fill="#1A1A1A"/>
<path fill-rule="evenodd" clip-rule="evenodd" d="M129.827 25.5276C130.455 20.5247 130.88 15.6362 131.465 11.2454C127.522 7.40045 123.489 3.59762 119.54 0.0275874C118.698 4.37424 117.848 8.85937 117.074 13.7037C121.211 17.5487 125.62 21.6023 129.827 25.5276Z" fill="#1A1A1A"/>
<path fill-rule="evenodd" clip-rule="evenodd" d="M131.706 9.0662C132.145 4.50281 132.534 0.411008 132.915 -3.55838C129.427 -6.99597 125.688 -10.6021 122.106 -14.0337C121.388 -10.2168 120.661 -6.26951 119.781 -2.1135C123.856 1.50269 127.879 5.31756 131.706 9.0662Z" fill="#1A1A1A"/>
<path fill-rule="evenodd" clip-rule="evenodd" d="M143.659 38.0317C143.988 32.8563 144.171 27.721 144.471 23.0833C140.753 19.3668 136.972 15.6944 133.123 12.1104C132.662 16.6958 132.217 21.5823 131.652 26.4487C135.795 30.2856 139.905 34.255 143.661 38.0297L143.659 38.0317Z" fill="#1A1A1A"/>
<path fill-rule="evenodd" clip-rule="evenodd" d="M144.6 20.8278C144.674 16.1962 144.768 11.7994 144.945 7.67149C141.509 4.32219 137.912 0.637763 134.482 -2.60718C134.098 1.29799 133.801 5.54029 133.444 9.92106C137.189 13.469 140.975 17.2076 144.598 20.8278L144.6 20.8278Z" fill="#1A1A1A"/>
<path fill-rule="evenodd" clip-rule="evenodd" d="M144.962 5.6826C145.062 1.59281 145.056 -2.25014 145.146 -6.04092C142.083 -9.25977 138.824 -12.4706 135.468 -15.5891C135.274 -12.0291 135.017 -8.34669 134.568 -4.50775C137.982 -1.31298 141.596 2.32127 144.964 5.68461L144.962 5.6826Z" fill="#1A1A1A"/>
<path fill-rule="evenodd" clip-rule="evenodd" d="M157.446 50.9993C157.388 45.555 157.311 40.3013 157.189 35.3927C153.601 31.8106 150.151 28.2386 146.593 24.7107C146.432 29.539 146.19 34.6181 145.971 39.7173C149.83 43.5402 153.743 47.3751 157.444 50.9993L157.446 50.9993Z" fill="#1A1A1A"/>
<path fill-rule="evenodd" clip-rule="evenodd" d="M157.027 33.1011C157.011 28.309 156.802 23.6713 156.66 19.3568C153.366 15.9653 150.071 12.5498 146.799 9.26074C146.841 13.4569 146.773 17.9541 146.564 22.4853C150.203 25.949 153.613 29.4889 157.027 33.1011Z" fill="#1A1A1A"/>
<path fill-rule="evenodd" clip-rule="evenodd" d="M156.624 17.1755C156.54 12.9272 156.373 8.81327 156.199 4.92817C153.224 1.83173 150.155 -1.3209 146.928 -4.47754C146.903 -0.754988 146.829 3.14817 146.767 7.17375C150.087 10.4548 153.443 13.8703 156.624 17.1735L156.624 17.1755Z" fill="#1A1A1A"/>
<path fill-rule="evenodd" clip-rule="evenodd" d="M156.18 3.144C155.96 -0.721028 155.892 -4.05829 155.693 -7.58417C152.786 -10.7147 149.994 -13.5563 147.089 -16.5645C147.073 -13.2051 147.109 -9.7876 147.037 -6.12726C150.126 -3.16929 153.195 -0.0106333 156.18 3.144Z" fill="#1A1A1A"/>
<path fill-rule="evenodd" clip-rule="evenodd" d="M168.535 44.64C168.252 39.6572 168.058 34.9413 167.687 30.3819C164.467 27.0026 161.35 23.7396 157.994 20.4404C158.297 24.9396 158.329 29.4388 158.47 34.3152C161.833 37.6284 165.189 41.088 168.535 44.638L168.535 44.64Z" fill="#1A1A1A"/>
<path fill-rule="evenodd" clip-rule="evenodd" d="M167.365 28.1003C167.162 23.6373 166.779 19.5355 166.344 15.3975C163.452 12.2529 160.505 9.20665 157.504 6.08813C157.839 10.1077 157.849 14.0209 157.985 18.3675C161.186 21.6426 164.442 24.9337 167.365 28.1003Z" fill="#1A1A1A"/>
<path fill-rule="evenodd" clip-rule="evenodd" d="M166.183 13.4869C165.879 9.55766 165.492 5.91538 165.093 2.22695C162.391 -0.759121 159.578 -3.64284 156.756 -6.64697C157.118 -3.09098 157.191 0.400787 157.479 4.30595C160.306 7.23383 163.223 10.3463 166.183 13.4869Z" fill="#1A1A1A"/>
<path fill-rule="evenodd" clip-rule="evenodd" d="M164.963 0.431068C164.654 -3.04465 164.466 -6.31769 164.157 -9.56664C161.539 -12.3721 158.951 -15.0953 156.297 -17.8787C156.459 -14.7521 156.596 -11.6677 156.752 -8.20605C159.537 -5.24808 162.245 -2.50684 164.963 0.431068Z" fill="#1A1A1A"/>
<path fill-rule="evenodd" clip-rule="evenodd" d="M177.668 39.25C177.139 34.7669 176.63 30.4443 176.112 26.0876C173.242 23.0012 170.461 19.989 167.543 16.8184C168.098 21.0928 168.34 25.1043 168.832 29.6777C171.853 32.8023 174.699 36.0492 177.668 39.25Z" fill="#1A1A1A"/>
<path fill-rule="evenodd" clip-rule="evenodd" d="M175.902 24.0846C175.467 20.0931 174.903 16.0836 174.426 12.2728C171.76 9.44524 169.068 6.49932 166.309 3.54736C166.722 7.27995 167.011 10.8841 167.346 14.9117C170.309 18.0763 173.065 21.0985 175.904 24.0846L175.902 24.0846Z" fill="#1A1A1A"/>
<path fill-rule="evenodd" clip-rule="evenodd" d="M174.212 10.4486C173.809 6.90468 173.332 3.42896 172.797 -0.135054C170.251 -2.85021 167.92 -5.44496 165.313 -8.28052C165.622 -5.03558 165.883 -1.7224 166.115 1.76335C168.89 4.65912 171.646 7.6532 174.212 10.4486Z" fill="#1A1A1A"/>
<path fill-rule="evenodd" clip-rule="evenodd" d="M188.269 48.8683C187.529 44.1424 186.869 39.6794 186.128 35.3889C183.566 32.3065 180.932 29.3826 178.047 26.22C178.708 30.5446 179.179 34.9113 179.755 39.3723C182.692 42.553 185.48 45.6936 188.271 48.8663L188.269 48.8683Z" fill="#1A1A1A"/>
<path fill-rule="evenodd" clip-rule="evenodd" d="M185.915 33.3519C185.189 29.1277 184.622 25.0941 183.938 21.1367C181.398 18.3955 178.947 15.5238 176.285 12.614C176.84 16.453 177.327 20.4163 177.936 24.4238C180.601 27.3597 183.199 30.2936 185.915 33.3519Z" fill="#1A1A1A"/>
<path fill-rule="evenodd" clip-rule="evenodd" d="M195.354 44.2929C194.598 39.9964 193.768 35.8785 193.018 31.8529C190.458 28.9572 188.002 26.1256 185.537 23.29C186.188 27.0888 186.816 31.2128 187.551 35.5393C190.091 38.397 192.717 41.379 195.354 44.2949L195.354 44.2929Z" fill="#1A1A1A"/>
<path fill-rule="evenodd" clip-rule="evenodd" d="M192.667 91.0265C191.815 84.8456 191.023 79.0902 190.454 73.6158C187.319 69.9735 184.103 66.6383 181.086 63.4114C181.531 68.7253 182.169 74.3844 182.814 80.3846C186.068 83.7981 189.367 87.3481 192.665 91.0245L192.667 91.0265Z" fill="#1A1A1A"/>
<path fill-rule="evenodd" clip-rule="evenodd" d="M115.65 11.2875C116.472 6.55352 117.184 1.85769 118.352 -2.19798C114.145 -6.01686 109.903 -9.92002 105.773 -13.5422C104.609 -9.51666 103.426 -5.28841 102.301 -0.811311C106.888 3.28249 111.23 7.2017 115.65 11.2895L115.65 11.2875Z" fill="#1A1A1A"/>
<path fill-rule="evenodd" clip-rule="evenodd" d="M111.874 29.1658C113.022 23.603 114.047 18.4878 115.137 13.6796C110.607 9.55166 106.082 5.3816 101.363 1.30786C99.9758 6.32478 98.2459 10.9524 96.891 16.2623C101.929 20.6491 106.946 24.9857 111.874 29.1658Z" fill="#1A1A1A"/>
<path fill-rule="evenodd" clip-rule="evenodd" d="M107.151 49.8295C108.424 43.3236 109.628 37.5581 110.891 31.7445C105.916 27.4059 100.852 23.0773 95.9014 18.7427C94.1095 24.171 92.3556 29.9204 90.5597 35.9527C96.3683 40.7248 101.83 45.2601 107.151 49.8295Z" fill="#1A1A1A"/>
<path fill-rule="evenodd" clip-rule="evenodd" d="M142.615 63.9973C144.254 62.3678 145.778 60.7765 147.083 59.1209C145.471 56.8151 143.753 54.413 142.119 52.041C140.568 53.514 138.902 54.9047 137.028 56.3997C138.934 58.9523 140.826 61.4989 142.615 63.9993L142.615 63.9973Z" fill="#1A1A1A"/>
<path fill-rule="evenodd" clip-rule="evenodd" d="M190.159 14.1251C190.712 13.6214 191.251 13.2241 191.77 12.8288C190.792 11.4802 189.832 10.1237 188.874 8.81323C188.282 9.11625 187.585 9.42931 187.003 9.7805C188.05 11.2314 189.09 12.6281 190.161 14.1251L190.159 14.1251Z" fill="#1A1A1A"/>
<path fill-rule="evenodd" clip-rule="evenodd" d="M215.446 60.5937C215.963 59.3776 216.42 58.2257 216.841 57.0859C215.674 55.3661 214.466 53.6483 213.193 51.8904C212.617 52.8496 212.104 53.9032 211.441 55.1012C212.836 56.8912 214.139 58.7435 215.444 60.5937L215.446 60.5937Z" fill="#1A1A1A"/>
<path fill-rule="evenodd" clip-rule="evenodd" d="M218.531 40.8815C218.876 40.147 219.329 39.5971 219.67 39.0152C218.756 37.6145 217.724 36.2799 216.729 34.9314C216.292 35.4251 215.775 35.8806 215.376 36.4766C216.399 37.8191 217.483 39.3483 218.531 40.8815Z" fill="#1A1A1A"/>
<path fill-rule="evenodd" clip-rule="evenodd" d="M226.07 10.238C226.353 9.84869 226.571 9.42326 226.832 9.03997C226.052 8.03056 225.246 6.92483 224.501 5.95557C224.198 6.2907 223.891 6.58167 223.54 6.88068C224.372 7.98641 225.22 9.13428 226.07 10.238Z" fill="#1A1A1A"/>
<path fill-rule="evenodd" clip-rule="evenodd" d="M223.372 87.5448C223.727 86.3407 223.971 85.1106 224.334 84.0691C223.243 82.3934 222.109 80.6234 221.058 79.0381C220.615 80.0475 220.237 80.9927 219.822 82.1084C220.966 83.7761 222.227 85.7266 223.372 87.5448Z" fill="#1A1A1A"/>
<path fill-rule="evenodd" clip-rule="evenodd" d="M250.353 43.1751C250.495 42.4105 250.616 41.6459 250.654 40.8954C249.856 39.6351 248.944 38.4351 248.07 37.229C247.947 37.9434 247.811 38.6618 247.653 39.3823C248.595 40.6706 249.491 41.9228 250.353 43.1751Z" fill="#1A1A1A"/>
<path fill-rule="evenodd" clip-rule="evenodd" d="M217.299 24.1388C217.519 23.4445 217.675 22.7602 217.87 22.12C217.096 21.0424 216.246 19.8222 215.48 18.6904C215.252 19.3346 215.041 19.9286 214.809 20.5768C215.655 21.7969 216.451 22.9227 217.299 24.1408L217.299 24.1388Z" fill="#1A1A1A"/>
<path fill-rule="evenodd" clip-rule="evenodd" d="M199.497 7.77776C199.724 7.08342 199.986 6.43323 200.153 5.79508C199.465 4.77965 198.727 3.6639 198.04 2.59229C197.813 3.23646 197.573 3.88062 197.302 4.48065C198.026 5.54624 198.755 6.66401 199.497 7.77776Z" fill="#1A1A1A"/>
<path fill-rule="evenodd" clip-rule="evenodd" d="M189.975 115.802C190.368 114.295 190.769 112.85 191.141 111.461C190.157 109.633 189.221 107.853 188.191 105.925C187.866 107.351 187.421 108.752 187.008 110.151C188.022 111.969 189.028 113.96 189.975 115.802Z" fill="#1A1A1A"/>
<path fill-rule="evenodd" clip-rule="evenodd" d="M242.126 61.0654C242.086 60.0559 242.076 59.1469 242.068 58.2378C241.392 57.1722 240.685 56.0605 239.929 54.9126C239.971 55.8176 239.895 56.6464 239.903 57.5595C240.657 58.7074 241.42 59.8573 242.126 61.0633L242.126 61.0654Z" fill="#1A1A1A"/>
<path fill-rule="evenodd" clip-rule="evenodd" d="M164.951 129.243C166.008 127.389 166.952 125.679 167.872 124.092C166.521 121.652 165.087 119.109 163.626 116.569C162.646 118.166 161.469 119.593 160.457 121.373C161.972 124.074 163.478 126.653 164.951 129.243Z" fill="#1A1A1A"/>
</g>
</g>
<path d="M0 1H389V-1H0V1ZM389 148H0V150H389V148Z" fill="#262626" mask="url(#path-1-inside-1_372_358)"/>
<defs>
<clipPath id="clip0_372_358">
<path d="M0 0H389V149H0V0Z" fill="white"/>
</clipPath>
<clipPath id="clip1_372_358">
<rect width="398" height="217" fill="white" transform="matrix(-1 0 0 1 439 -18)"/>
</clipPath>
<clipPath id="clip2_372_358">
<rect width="522" height="284" fill="white" transform="translate(263 -109) rotate(90)"/>
</clipPath>
</defs>
</svg>
