<?xml version="1.0" encoding="utf-8"?>
<!-- Generator: Adobe Illustrator 19.0.0, SVG Export Plug-In . SVG Version: 6.00 Build 0)  -->
<svg version="1.1" id="Layer_1" xmlns="http://www.w3.org/2000/svg" xmlns:xlink="http://www.w3.org/1999/xlink" x="0px" y="0px"
	 viewBox="-234 236 30 30" style="enable-background:new -234 236 30 30;" xml:space="preserve">
<style type="text/css">
	.st0{fill:#1A1A1A;}
	.st1{fill:none;stroke:#262626;}
	.st2{fill:#FFE600;}
	.st3{fill:#262626;}
</style>
<path class="st0" d="M-219,236.5L-219,236.5c8,0,14.5,6.5,14.5,14.5l0,0c0,8-6.5,14.5-14.5,14.5l0,0c-8,0-14.5-6.5-14.5-14.5l0,0
	C-233.5,243-227,236.5-219,236.5z"/>
<path class="st1" d="M-219,236.5L-219,236.5c8,0,14.5,6.5,14.5,14.5l0,0c0,8-6.5,14.5-14.5,14.5l0,0c-8,0-14.5-6.5-14.5-14.5l0,0
	C-233.5,243-227,236.5-219,236.5z"/>
<path class="st2" d="M-214.5,257.8c-0.2,0.1-0.4,0-0.6,0l-3.5-1.3c-0.2-0.1-0.5-0.1-0.7,0l-3.5,1.3c-0.7,0.3-1.4-0.3-1.4-1l0.2-3.7
	c0-0.3-0.1-0.5-0.2-0.7l-2.4-2.9c-0.5-0.6-0.2-1.4,0.5-1.6l3.6-1c0.3-0.1,0.5-0.2,0.6-0.4l2-3.1c0.2-0.4,0.6-0.5,1-0.4v13.4
	c0.1,0,0.2,0,0.2,0.1l3.5,1.3C-215,257.8-214.7,257.8-214.5,257.8z"/>
<path class="st2" d="M-213.8,256.3l-0.2-3.3c0-0.1,0-0.2,0-0.2c0,0.1,0,0.2,0,0.2L-213.8,256.3z"/>
<g>
	<path class="st2" d="M-218.4,243.9l1.8,2.8c0,0.1,0.1,0.1,0.1,0.2l0,0l0,0c0.2,0.2,0.5,0.3,0.7,0.4l3.6,0.9c0.1,0,0.2,0.1,0.2,0.1
		c0.2,0.2,0.2,0.4,0,0.7l-2.4,2.9l-0.1,0.1v0c-0.1,0.1-0.1,0.2-0.1,0.3c0,0.1-0.1,0.1-0.1,0.2c0,0.1-0.1,0.2,0,0.4l0.2,3.3l0,0.4
		c0,0.1,0,0.3-0.1,0.3c-0.1,0.1-0.1,0.1-0.2,0.2c0,0-0.1,0-0.1,0c0,0-0.1,0-0.1,0c-0.1,0-0.1,0-0.2,0l-3.4-1.3V243.9 M-218.8,242.9
		L-218.8,242.9l0,13.4c0.1,0,0.2,0,0.2,0.1l3.5,1.3c0.1,0,0.3,0.1,0.4,0.1c0.1,0,0.2,0,0.2,0c0.1,0,0.1,0,0.2-0.1
		c0.1-0.1,0.3-0.2,0.4-0.3c0.1-0.2,0.2-0.4,0.2-0.6l0-0.4l-0.2-3.3c0-0.1,0-0.2,0-0.2c0-0.1,0-0.1,0-0.2c0-0.1,0.1-0.2,0.2-0.3v0
		l2.4-2.9c0.3-0.4,0.3-1-0.1-1.3c-0.1-0.1-0.3-0.2-0.4-0.3l-3.6-1c-0.2,0-0.3-0.1-0.5-0.3c0,0-0.1-0.1-0.1-0.1l-2-3.1
		c-0.1-0.2-0.2-0.3-0.4-0.3C-218.6,243-218.7,242.9-218.8,242.9C-218.8,242.9-218.8,242.9-218.8,242.9
		C-218.8,242.9-218.8,242.9-218.8,242.9C-218.8,242.9-218.8,242.9-218.8,242.9L-218.8,242.9z"/>
</g>
<path class="st3" d="M-218.9,242.9C-218.9,242.9-218.8,242.9-218.9,242.9L-218.9,242.9L-218.9,242.9z"/>
<path class="st3" d="M-218.2,243.3c-0.1-0.2-0.2-0.3-0.4-0.3C-218.4,243-218.3,243.2-218.2,243.3z"/>
</svg>
