<?xml version="1.0" encoding="iso-8859-1"?>
<svg fill="#703BF7" height="800px" width="800px" version="1.1" id="Layer_1" xmlns="http://www.w3.org/2000/svg"
	xmlns:xlink="http://www.w3.org/1999/xlink" viewBox="0 0 512 512" xml:space="preserve">
	<g id="window">
		<path d="M217.043,233.739H83.478c-9.217,0-16.696,7.473-16.696,16.696V384c0,9.223,7.479,16.696,16.696,16.696h133.565
			c9.217,0,16.696-7.473,16.696-16.696V250.435C233.739,241.212,226.261,233.739,217.043,233.739z M133.565,300.522h-33.391V267.13
			h33.391V300.522z M200.348,300.522h-33.391V267.13h33.391V300.522z" />
	</g>
	<g id="skeleton">
		<path
			d="M509.136,174.303L442.413,74.218c-3.098-4.647-8.303-7.435-13.891-7.435H233.739V16.696
			C233.739,7.473,226.261,0,217.043,0H116.87c-9.217,0-16.696,7.473-16.696,16.696v50.087H83.478
			c-5.587,0-10.793,2.788-13.891,7.435L2.861,174.306c-0.004,0.008-0.01,0.016-0.01,0.016C1.061,176.969,0,180.853,0,183.652
			v311.652C0,504.527,7.479,512,16.696,512c403.062,0,398.882,0,478.609,0c9.217,0,16.696-7.473,16.696-16.696V183.652
			C512,180.494,510.757,176.659,509.136,174.303z M133.565,33.391h66.783v33.391h-66.783V33.391z M478.609,478.609h-33.391V250.435
			c0-9.223-7.479-16.696-16.696-16.696H294.957c-9.217,0-16.696,7.473-16.696,16.696v83.478h50.087
			c9.217,0,16.696,7.473,16.696,16.696c0,9.223-7.479,16.696-16.696,16.696h-50.087v111.304H33.391V200.348h445.217V478.609z" />
	</g>
</svg>